<svg width="40" height="37" viewBox="0 0 40 37" fill="none" xmlns="http://www.w3.org/2000/svg">
<path d="M14.8593 27.4928L15.5477 28.8871L17.1159 28.4402L13.6353 17.2679L9.81056 17.3573L14.8593 27.4928Z" fill="#D72691"/>
<path d="M19.449 36.7167L19.755 37.0027L19.7741 36.9848L17.1159 28.4402L15.5478 28.8871L19.449 36.7167Z" fill="#447FC2"/>
<path d="M12.1628 29.8703L15.5477 28.8871L9.81057 17.3573L0.956196 17.5897L0 18.4656L12.1628 29.8703Z" fill="#ED1F24"/>
<path d="M19.449 36.7167L15.5478 28.8871L12.1628 29.8703L19.449 36.7167Z" fill="#734299"/>
<path d="M17.1159 28.4402L23.5989 26.5812L22.2793 17.0534L13.6353 17.2679L17.1159 28.4402Z" fill="#782163"/>
<path d="M19.7741 36.9848L24.4404 32.641L23.5989 26.5812L17.1159 28.4402L19.7741 36.9848Z" fill="#293D98"/>
<path d="M9.81058 17.3573L13.6354 17.2679L12.5644 13.8L8.66315 15.0513L9.81058 17.3573Z" fill="#FBA819"/>
<path d="M8.66316 15.0513L12.5644 13.8L10.8624 8.3658L7.095 11.8694L8.66316 15.0513Z" fill="#FDBD11"/>
<path d="M9.81055 17.3573L8.66312 15.0514L1.03267 17.5182L0.956177 17.5897L9.81055 17.3573Z" fill="#FDD209"/>
<path d="M8.66316 15.0514L7.095 11.8695L1.03271 17.5182L8.66316 15.0514Z" fill="#F9EF14"/>
<path d="M13.6354 17.2679L22.2794 17.0534L21.4188 10.9578L12.5644 13.8L13.6354 17.2679Z" fill="#EE4085"/>
<path d="M21.4188 10.9578L19.908 0.0536271L19.8507 0L13.5589 5.84535L21.4188 10.9578Z" fill="#F57D20"/>
<path d="M12.5644 13.8L21.4188 10.9578L13.5589 5.84536L10.8624 8.36583L12.5644 13.8Z" fill="#F7961D"/>
<path d="M23.5989 26.5812L34.2127 23.5423L36.9283 21.0397L30.5026 16.8568L22.2793 17.0534L23.5989 26.5812Z" fill="#46B854"/>
<path d="M30.5027 16.8568L36.9283 21.0397L39.6056 18.555L37.6168 16.678L30.5027 16.8568Z" fill="#7CC242"/>
<path d="M24.4404 32.641L34.2127 23.5423L23.5989 26.5812L24.4404 32.641Z" fill="#3C59A8"/>
<path d="M22.2794 17.0534L30.5027 16.8568L21.4188 10.9578L22.2794 17.0534Z" fill="#8AC53F"/>
<path d="M21.4188 10.9578L30.5027 16.8568L37.6168 16.6781L28.9536 8.54461L21.4188 10.9578Z" fill="#BBD531"/>
<path d="M19.908 0.0536156L21.4188 10.9578L28.9536 8.54457L22.8913 2.8601L19.908 0.0536156Z" fill="#EBE711"/>
</svg>
