<svg xmlns="http://www.w3.org/2000/svg" width="235" height="38" viewBox="0 0 235 38" fill="none">
    <path d="M21.0446 11.2849V13.7248C20.4346 13.1148 19.8246 12.5048 19.2146 12.1998C17.3847 10.9799 15.2497 10.3699 12.8098 10.3699C10.3698 10.3699 8.23485 10.9799 6.40488 12.1998C4.57492 13.4198 2.74495 14.9448 1.82997 17.0797C0.60999 19.2147 0 21.3497 0 23.7896C0 26.2296 0.60999 28.6695 1.82997 30.4995C3.04995 32.6345 4.57492 34.1594 6.40488 35.3794C8.23485 36.5994 10.3698 37.2094 12.8098 37.2094C15.2497 37.2094 17.3847 36.5994 19.2146 35.3794C19.8246 35.0744 20.4346 34.4644 21.0446 33.8544V36.2944H27.4495V11.2849H21.0446ZM20.1296 27.7545C19.5196 28.6695 18.6047 29.5845 17.6897 30.1945C16.4697 30.8045 15.2497 31.1095 14.0297 31.1095C12.8098 31.1095 11.5898 30.8045 10.3698 30.1945C9.14983 29.5845 8.23485 28.6695 7.62486 27.7545C7.01487 26.5346 6.70988 25.3146 6.70988 24.0946C6.70988 22.8746 7.01487 21.6547 7.62486 20.4347C8.23485 19.2147 9.14983 18.6047 10.3698 17.6897C11.5898 17.0797 12.8098 16.7747 14.0297 16.7747C15.2497 16.7747 16.4697 16.7748 17.6897 17.6897C18.6047 18.2997 19.5196 19.2147 20.1296 20.4347C20.7396 21.6547 21.0446 22.8746 21.0446 24.0946C21.0446 25.3146 21.0446 26.8396 20.1296 27.7545Z" fill="white"/>
    <path d="M57.0345 16.7748C56.1195 14.9448 54.5946 13.4198 52.7646 12.1998C50.9346 10.9799 49.1047 10.3699 46.9697 10.3699C44.8347 10.3699 43.3098 10.9799 41.7848 11.8948C40.5648 12.5048 39.6498 13.4198 39.0398 14.3348V11.2849H32.3299V36.2944H39.0398V23.4846C39.0398 22.2646 39.0398 21.0447 39.9548 19.8247C40.5648 18.6047 41.4798 17.9947 42.3948 17.3847C43.3098 16.7747 44.5297 16.4698 45.7497 16.4698C46.9697 16.4698 47.8847 16.7747 49.1046 17.3847C50.0196 17.9947 50.9346 18.9097 51.5446 19.8247C52.1546 20.7397 52.4596 21.9597 52.4596 23.1796V36.5994H59.1695V23.1796C59.1695 20.7397 58.5595 18.6047 57.6445 16.7748H57.0345Z" fill="white"/>
    <path d="M87.8381 16.7748C86.9231 14.9448 85.3981 13.4198 83.5681 12.1998C81.7382 10.9799 79.9082 10.3699 77.7732 10.3699C75.6383 10.3699 74.1133 10.9799 72.5883 11.8948C71.6734 12.5048 70.7584 13.4198 69.8434 14.3348V11.2849H63.1335V36.2944H69.8434V23.4846C69.8434 22.2646 69.8434 21.0447 70.7584 19.8247C71.3684 18.6047 71.9784 17.9947 73.1983 17.3847C74.1133 16.7747 75.3333 16.4698 76.5533 16.4698C77.7732 16.4698 78.6882 16.7747 79.6032 17.3847C80.5182 17.9947 81.4332 18.9097 82.0432 19.8247C82.6532 20.7397 82.9582 21.9597 82.9582 23.1796V36.5994H89.668V23.1796C89.668 20.7397 89.058 18.6047 88.1431 16.7748H87.8381Z" fill="white"/>
    <path d="M118.033 17.0797C116.813 14.9448 115.288 13.4198 113.153 12.1998C111.018 10.9799 108.883 10.3699 106.138 10.3699C103.393 10.3699 101.258 10.9799 99.1235 12.1998C96.9886 13.4198 95.4636 14.9448 94.2436 17.0797C93.0236 19.2147 92.4136 21.3497 92.4136 23.7896C92.4136 26.2296 93.0236 28.6695 94.2436 30.4995C95.4636 32.6345 96.9886 34.1594 99.1235 35.3794C101.258 36.5994 103.393 37.2094 106.138 37.2094C108.883 37.2094 111.018 36.5994 113.153 35.3794C115.288 34.1594 116.813 32.6345 118.033 30.4995C119.253 28.3645 119.863 26.2296 119.863 23.7896C119.863 21.3497 119.253 18.9097 118.033 17.0797ZM112.238 27.7545C111.628 28.9745 110.713 29.5845 109.798 30.4995C108.883 31.1095 107.663 31.4145 106.138 31.4145C104.613 31.4145 103.698 31.1095 102.478 30.4995C101.258 29.8895 100.648 28.9745 100.039 27.7545C99.4285 26.5346 99.1235 25.3146 99.1235 24.0946C99.1235 22.8746 99.4285 21.6547 100.039 20.4347C100.648 19.2147 101.563 18.6047 102.478 17.6897C103.698 17.0797 104.918 16.7747 106.138 16.7747C107.358 16.7747 108.578 17.0797 109.798 17.6897C110.713 18.2997 111.628 19.2147 112.238 20.4347C112.848 21.6547 113.153 22.8746 113.153 24.0946C113.153 25.3146 112.848 26.8396 112.238 27.7545Z" fill="white"/>
    <path d="M138.773 30.4995V36.5994H132.978C131.148 36.5994 129.623 36.2944 128.098 35.3794C126.573 34.4644 125.658 33.2444 124.743 31.7194C123.828 30.1945 123.523 28.3645 123.523 26.5345V16.4697H120.168V11.5898H123.523V2.745H130.233V11.5898H137.248V16.4697H130.233V26.5345C130.233 27.4495 130.233 28.0595 130.843 28.6695C131.148 29.2795 131.758 29.8895 132.368 30.1945C132.978 30.4995 133.588 30.8045 134.503 30.8045H139.383L138.773 30.4995Z" fill="white"/>
    <path d="M159.208 11.5899C157.988 10.9799 156.463 10.6749 155.243 10.6749C154.023 10.6749 152.193 11.2849 150.668 12.1999C149.753 12.8099 149.143 13.7249 148.533 14.6399V11.5899H141.823V36.5994H148.533V23.7897C148.533 22.2647 148.533 21.0447 149.143 20.1297C149.753 18.9098 150.363 18.2998 150.973 17.6898C151.888 17.0798 152.498 16.7748 153.718 16.7748C154.938 16.7748 155.243 16.7748 156.158 17.3848C156.768 17.9948 157.378 18.2998 157.988 19.2148C158.293 19.8248 158.903 20.7397 158.903 21.3497L161.953 13.7249C161.038 12.8099 160.428 12.1999 159.208 11.5899Z" fill="white"/>
    <path d="M234.235 24.3047V36.5993L228.135 36.5994V23.1796C228.135 21.9597 227.83 20.7397 227.22 19.8247C226.61 18.9097 226 17.9947 224.781 17.3847C223.866 16.7747 222.646 16.4698 221.426 16.4698C220.206 16.4698 218.986 16.7747 218.071 17.3847C217.156 17.9947 216.241 18.9097 215.631 19.8247C215.021 20.7397 214.716 21.9597 214.716 23.4846V36.2944H208.006V11.2849H214.716V14.3348C215.326 13.4198 216.241 12.5048 217.461 11.8948C218.986 10.9799 220.816 10.3699 222.646 10.3699C224.476 10.3699 226.915 10.9799 228.44 12.1998C230.27 13.4198 231.49 14.9448 232.71 16.7747C233.625 18.6047 234.235 20.7397 234.235 23.1796V24.3047Z" fill="white"/>
    <path d="M180.862 0H171.102L156.768 36.5993H165.917L168.357 30.4994H184.217L186.657 36.5993H195.807L181.472 0H180.862ZM171.102 22.2646L175.982 9.45482L180.862 22.2646H171.102Z" fill="#FDD209"/>
    <path d="M196.417 36.5993V0H204.957V36.5993H196.417Z" fill="#FDD209"/>
</svg>
