<svg xmlns="http://www.w3.org/2000/svg" width="72" height="72" viewBox="0 0 72 72" fill="none">
    <path d="M24.3918 65.5347L42.0242 72C36.1467 69.9428 31.4447 59.3632 31.1509 44.9632C31.1509 35.853 14.1062 35.2652 12.6368 40.555C11.1674 45.2571 13.2245 61.7142 24.0979 65.5347H24.3918Z" fill="#8AC53F"/>
    <path d="M65.5348 47.3143L72 29.6816C69.9429 35.5592 59.3634 40.2613 44.9636 40.5551C35.8535 40.5551 35.2658 57.6001 40.5555 59.0695C45.2575 60.5388 61.7144 58.4817 65.5348 47.6082V47.3143Z" fill="#447FC2"/>
    <path d="M47.3146 6.46532L29.6822 0C35.5597 2.05715 40.2616 12.6368 40.5555 27.0368C40.5555 36.147 57.6002 36.7348 59.0696 31.445C60.539 26.7429 58.4818 10.2857 47.6085 6.46532H47.3146Z" fill="#FDD209"/>
    <path d="M6.46523 24.3919L0 42.3185C2.05712 36.4409 12.6366 31.7389 27.0364 31.445C36.1465 31.445 36.7343 14.4 31.4445 12.9307C26.7426 11.4613 10.2856 13.5184 6.46523 24.3919Z" fill="#D72691"/>
    <path d="M12.0488 40.2612C12.0488 39.6734 12.3427 39.3796 12.6366 39.0857C11.755 37.9102 11.1672 37.0285 11.1672 36.1469C6.75911 37.3224 2.05712 40.849 1.17549 43.2C0.293872 46.1388 4.11424 52.6041 12.9305 52.898C11.4611 47.6082 11.4611 42.6122 12.0488 40.2612Z" fill="#B70D7A"/>
    <path d="M44.3756 60.5387C42.9062 60.5387 41.4368 60.5387 40.5552 59.9509C39.9675 59.9509 39.6736 59.657 39.3797 59.3632C38.2042 60.2448 37.3226 60.8325 36.441 60.8325C37.6165 65.2407 41.143 69.9428 43.4939 70.8244C46.4327 71.706 52.8979 67.8856 53.1918 59.0693C49.9592 59.9509 47.0204 60.5387 44.3756 60.5387Z" fill="#197F23"/>
    <path d="M59.3629 19.3959C60.8322 24.6857 60.8322 29.6816 60.2445 32.0326C60.2445 32.6204 59.9506 32.9143 59.6567 33.2082C60.5384 34.3837 61.1261 35.2653 61.1261 36.1469C65.5342 34.9714 70.2362 31.4449 71.1178 29.0939C71.9995 26.1551 68.1791 19.6898 59.3629 19.3959Z" fill="#3C59A8"/>
    <path d="M28.2115 11.4611C29.6809 11.4611 31.1502 11.4611 32.0319 12.0489C32.6196 12.0489 32.9135 12.3427 33.2074 12.6366C34.3829 11.755 35.2645 11.1672 36.1461 11.1672C34.9706 6.75906 31.4441 2.05701 29.0931 1.17537C26.1544 0.29374 19.6892 4.11416 19.3953 12.9305C22.6279 12.0489 25.5666 11.4611 28.2115 11.4611Z" fill="#F7961D"/>
</svg>
